:FULLY-SPECIFIED
:FORCE-ALL-JOINTS-BE-3DOF
:DEGREES
612
root -7.36621 14.8413 -40.754 67.6701 -87.4124 -65.7446
lfemur -28.1019 10.8664 -7.27093
ltibia 51.9034 -0 0
lfoot -4.33667 11.3432 -2.24846
ltoes -11.6336 0 0
rfemur -31.9218 -17.321 14.9828
rtibia 61.4767 -0 0
rfoot -17.9967 -11.8704 1.18973
rtoes -11.0709 0 0
lowerback 14.3369 2.39971 -1.72665
upperback -1.01182 3.09458 2.46109
thorax -9.38187 1.60964 2.94825
lowerneck -2.16418 -4.79573 -8.25881
upperneck 3.57646 -6.46172 7.31035
head 2.15114 -3.18661 3.57513
lclavicle -1.6115e-14 -3.03166e-14 -6.38348e-30
lhumerus -7.92291 -24.1391 90.1833
lradius 66.8387 -0 0
lwrist 21.5585 0 0
lhand -17.6431 70.2318 -2.4655
lfingers 7.12502 -0 0
lthumb 8.01359 171.669 -22.3572
rclavicle -1.6115e-14 -3.03166e-14 -6.38348e-30
rhumerus 9.11355 26.0804 -62.4415
rradius 82.2726 -0 0
rwrist -20.7852 0 0
rhand 4.13254 -16.3016 2.03964
rfingers 7.12502 -0 0
rthumb 29.1392 -40.2634 3.30165
613
root -7.36644 14.8521 -40.7252 74.0392 -87.3254 -72.1304
lfemur -28.77 10.8896 -7.26318
ltibia 52.0439 -0 0
lfoot -4.00883 11.0364 -2.24407
ltoes -11.5153 0 0
rfemur -31.3647 -17.3237 15.1335
rtibia 61.2519 -0 0
rfoot -18.1456 -12.2263 1.18742
rtoes -11.2162 0 0
lowerback 14.3573 2.39677 -1.65585
upperback -1.02174 3.10525 2.49272
thorax -9.40321 1.61212 2.9393
lowerneck -2.21152 -4.70338 -8.19421
upperneck 3.63427 -6.33937 7.30456
head 2.16654 -3.12448 3.56905
lclavicle -1.65503e-14 -3.09636e-14 -6.37119e-30
lhumerus -6.75009 -24.0083 89.9257
lradius 66.2016 -0 0
lwrist 20.7245 0 0
lhand -18.1672 70.4439 -2.46065
lfingers 7.12502 -0 0
lthumb 7.25108 173.425 -22.303
rclavicle -1.65503e-14 -3.09636e-14 -6.37119e-30
rhumerus 8.84888 26.3292 -62.7959
rradius 83.2637 -0 0
rwrist -21.509 0 0
rhand 4.68315 -16.1345 2.03563
rfingers 7.12502 -0 0
rthumb 29.6649 -39.9793 3.29514
614
root -7.36666 14.8629 -40.6965 79.9387 -87.2075 -78.0467
lfemur -29.4382 10.9128 -7.2557
ltibia 52.1843 -0 0
lfoot -3.68102 10.7295 -2.23793
ltoes -11.3971 0 0
rfemur -30.8075 -17.3278 15.2841
rtibia 61.027 -0 0
rfoot -18.2946 -12.5822 1.18418
rtoes -11.3614 0 0
lowerback 14.3777 2.3938 -1.58505
upperback -1.03165 3.11593 2.52434
thorax -9.42454 1.61459 2.93035
lowerneck -2.25876 -4.61098 -8.1297
upperneck 3.69205 -6.21702 7.2989
head 2.18193 -3.06236 3.56299
lclavicle -1.69856e-14 -3.16107e-14 -6.35399e-30
lhumerus -5.57912 -23.8728 89.6714
lradius 65.5645 -0 0
lwrist 19.8906 0 0
lhand -18.6913 70.656 -2.45387
lfingers 7.12502 -0 0
lthumb 6.49108 175.178 -22.2273
rclavicle -1.69856e-14 -3.16107e-14 -6.35399e-30
rhumerus 8.58192 26.5765 -63.1522
rradius 84.2547 -0 0
rwrist -22.2328 0 0
rhand 5.23375 -15.9674 2.03001
rfingers 7.12502 -0 0
rthumb 30.1906 -39.6952 3.28603
615
root -7.36688 14.8737 -40.6678 85.3082 -87.0625 -83.4329
lfemur -30.1065 10.9361 -7.2485
ltibia 52.3248 -0 0
lfoot -3.35324 10.4227 -2.23004
ltoes -11.2789 0 0
rfemur -30.2503 -17.3332 15.4346
rtibia 60.8022 -0 0
rfoot -18.4435 -12.9381 1.18002
rtoes -11.5067 0 0
lowerback 14.3981 2.39081 -1.51426
upperback -1.04155 3.12661 2.55596
thorax -9.44588 1.61706 2.9214
lowerneck -2.30588 -4.51852 -8.06526
upperneck 3.7498 -6.09467 7.29336
head 2.19731 -3.00023 3.55694
lclavicle -1.7421e-14 -3.22577e-14 -6.33186e-30
lhumerus -4.41007 -23.7326 89.4204
lradius 64.9274 -0 0
lwrist 19.0566 0 0
lhand -19.2153 70.8681 -2.44514
lfingers 7.12502 -0 0
lthumb 5.7344 176.93 -22.1301
rclavicle -1.7421e-14 -3.22577e-14 -6.33186e-30
rhumerus 8.31267 26.8223 -63.5107
rradius 85.2458 -0 0
rwrist -22.9566 0 0
rhand 5.78432 -15.8003 2.02279
rfingers 7.12502 -0 0
rthumb 30.7162 -39.4113 3.27432
